<?xml version="1.0" ?><svg height="60px" version="1.1" viewBox="0 0 60 60" width="60px" xmlns="http://www.w3.org/2000/svg" xmlns:xlink="http://www.w3.org/1999/xlink"><title/><desc/><defs/><g fill="none" fill-rule="evenodd" id="People" stroke="none" stroke-width="1"><g fill="#000000" id="Icon-40"><path d="M17.001,9.2949 C17.193,9.2949 17.388,9.2389 17.559,9.1239 L26.524,3.0799 C26.542,3.0689 28.324,1.9999 30,1.9999 C31.681,1.9999 33.447,3.1029 33.465,3.1139 C33.932,3.4069 34.548,3.2699 34.844,2.8049 C35.139,2.3389 35.002,1.7229 34.537,1.4259 C34.445,1.3679 32.272,-0.0001 30,-0.0001 C27.737,-0.0001 25.566,1.3209 25.441,1.3989 L16.441,7.4659 C15.983,7.7739 15.862,8.3959 16.171,8.8539 C16.364,9.1409 16.68,9.2949 17.001,9.2949 M30,26.9999 C31.103,26.9999 32,27.8979 32,28.9999 C32,29.5529 32.447,29.9999 33,29.9999 C33.553,29.9999 34,29.5529 34,28.9999 C34,27.1419 32.721,25.5889 31,25.1419 L31,24.9999 C31,24.4469 30.553,23.9999 30,23.9999 C29.447,23.9999 29,24.4469 29,24.9999 L29,25.1419 C27.279,25.5889 26,27.1419 26,28.9999 C26,31.2059 27.794,32.9999 30,32.9999 C31.103,32.9999 32,33.8979 32,34.9999 C32,36.1029 31.103,36.9999 30,36.9999 C28.897,36.9999 28,36.1029 28,34.9999 C28,34.4469 27.553,33.9999 27,33.9999 C26.447,33.9999 26,34.4469 26,34.9999 C26,36.8579 27.279,38.4109 29,38.8579 L29,38.9999 C29,39.5529 29.447,39.9999 30,39.9999 C30.553,39.9999 31,39.5529 31,38.9999 L31,38.8579 C32.721,38.4109 34,36.8579 34,34.9999 C34,32.7939 32.206,30.9999 30,30.9999 C28.897,30.9999 28,30.1029 28,28.9999 C28,27.8979 28.897,26.9999 30,26.9999 M41.966,31.0779 C42.006,31.6029 42.444,32.0019 42.962,32.0019 C42.987,32.0019 43.013,32.0009 43.039,31.9989 C43.589,31.9569 44.002,31.4769 43.96,30.9259 C43.409,23.6779 37.277,17.9999 30,17.9999 C22.724,17.9999 16.593,23.6769 16.041,30.9239 C15.999,31.4749 16.411,31.9549 16.962,31.9969 C17.521,32.0319 17.993,31.6259 18.035,31.0759 C18.508,24.8649 23.764,19.9999 30,19.9999 C36.238,19.9999 41.494,24.8659 41.966,31.0779 M47,28.9999 C47.553,28.9999 48,28.5529 48,27.9999 L48,1.9999 L52,1.9999 L52,23.9999 C52,24.5529 52.447,24.9999 53,24.9999 C53.553,24.9999 54,24.5529 54,23.9999 L54,0.9999 C54,0.4469 53.553,-0.0001 53,-0.0001 L47,-0.0001 C46.447,-0.0001 46,0.4469 46,0.9999 L46,27.9999 C46,28.5529 46.447,28.9999 47,28.9999 M37,17.9999 C37.553,17.9999 38,17.5529 38,16.9999 L38,5.9999 L42,5.9999 L42,21.9999 C42,22.5529 42.447,22.9999 43,22.9999 C43.553,22.9999 44,22.5529 44,21.9999 L44,4.9999 C44,4.4469 43.553,3.9999 43,3.9999 L37,3.9999 C36.447,3.9999 36,4.4469 36,4.9999 L36,16.9999 C36,17.5529 36.447,17.9999 37,17.9999 M7,24.9999 C7.553,24.9999 8,24.5529 8,23.9999 L8,9.9999 L12,9.9999 L12,27.9999 C12,28.5529 12.447,28.9999 13,28.9999 C13.553,28.9999 14,28.5529 14,27.9999 L14,8.9999 C14,8.4469 13.553,7.9999 13,7.9999 L7,7.9999 C6.447,7.9999 6,8.4469 6,8.9999 L6,23.9999 C6,24.5529 6.447,24.9999 7,24.9999 M17,22.9999 C17.553,22.9999 18,22.5529 18,21.9999 L18,13.9999 L22,13.9999 L22,16.9999 C22,17.5529 22.447,17.9999 23,17.9999 C23.553,17.9999 24,17.5529 24,16.9999 L24,12.9999 C24,12.4469 23.553,11.9999 23,11.9999 L17,11.9999 C16.447,11.9999 16,12.4469 16,12.9999 L16,21.9999 C16,22.5529 16.447,22.9999 17,22.9999 M33,15.9999 C33.553,15.9999 34,15.5529 34,14.9999 L34,8.9999 C34,8.4469 33.553,7.9999 33,7.9999 L27,7.9999 C26.447,7.9999 26,8.4469 26,8.9999 L26,14.9999 C26,15.5529 26.447,15.9999 27,15.9999 C27.553,15.9999 28,15.5529 28,14.9999 L28,9.9999 L32,9.9999 L32,14.9999 C32,15.5529 32.447,15.9999 33,15.9999 M40.214,41.3819 C39.872,41.8159 39.948,42.4449 40.382,42.7859 L54.382,53.7859 C54.565,53.9309 54.783,53.9999 54.999,53.9999 C55.296,53.9999 55.589,53.8689 55.786,53.6179 C56.128,53.1839 56.052,52.5549 55.618,52.2139 L41.618,41.2139 C41.183,40.8709 40.555,40.9489 40.214,41.3819 M18.382,41.2139 L4.382,52.2139 C3.948,52.5549 3.872,53.1839 4.214,53.6179 C4.411,53.8689 4.704,53.9999 5.001,53.9999 C5.217,53.9999 5.435,53.9309 5.618,53.7859 L19.618,42.7859 C20.052,42.4449 20.128,41.8159 19.786,41.3819 C19.445,40.9489 18.817,40.8709 18.382,41.2139 M4.204,26.3959 C3.869,26.8349 3.955,27.4619 4.396,27.7959 L26.353,44.4719 C26.537,44.6279 28.206,45.9999 30,45.9999 C31.803,45.9999 33.485,44.6779 33.648,44.5449 L55.606,27.7949 C56.046,27.4599 56.13,26.8329 55.795,26.3939 C55.461,25.9559 54.833,25.8669 54.394,26.2049 L32.414,42.9719 C32.058,43.2579 30.929,43.9999 30,43.9999 C29.099,43.9999 27.994,43.2379 27.605,42.9129 L5.605,26.2039 C5.165,25.8699 4.537,25.9539 4.204,26.3959 M60,22.9999 L60,54.9999 C60,57.8039 57.804,59.9999 55,59.9999 L5,59.9999 C2.196,59.9999 0,57.8039 0,54.9999 L0,22.9999 C0,19.9599 1.272,17.4599 3.488,16.1409 C3.962,15.8569 4.576,16.0139 4.859,16.4879 C5.142,16.9629 4.986,17.5769 4.512,17.8589 C2.915,18.8099 2,20.6829 2,22.9999 L2,54.9999 C2,56.6829 3.317,57.9999 5,57.9999 L55,57.9999 C56.71,57.9999 58,56.7099 58,54.9999 L58,22.9999 C58,21.3579 57.563,19.1329 55.477,17.8529 C55.006,17.5639 54.858,16.9469 55.147,16.4769 C55.438,16.0049 56.053,15.8599 56.523,16.1479 C58.766,17.5249 60,19.9579 60,22.9999" id="envelope-stats"/></g></g></svg>