<?xml version="1.0" ?><svg height="60px" version="1.1" viewBox="0 0 60 60" width="60px" xmlns="http://www.w3.org/2000/svg" xmlns:xlink="http://www.w3.org/1999/xlink"><title/><desc/><defs/><g fill="none" fill-rule="evenodd" id="People" stroke="none" stroke-width="1"><g fill="#000000" id="Icon-14"><path d="M10,10 L7.414,10 L3.414,6 L5,6 C5.553,6 6,5.552 6,5 L6,3.414 L10,7.414 L10,10 Z M30,0 C23.354,0 16.914,2.216 11.677,6.263 L5.707,0.293 C5.421,0.007 4.991,-0.077 4.617,0.076 C4.243,0.231 4,0.596 4,1 L4,4 L1,4 C0.596,4 0.23,4.244 0.076,4.617 C-0.079,4.991 0.007,5.421 0.293,5.707 L6.293,11.707 C6.48,11.895 6.734,12 7,12 L10.586,12 L29.293,30.707 C29.488,30.902 29.744,31 30,31 C30.256,31 30.512,30.902 30.707,30.707 C31.098,30.316 31.098,29.684 30.707,29.293 L27.94,26.527 C28.522,26.187 29.205,26 30,26 C32.206,26 34,27.794 34,30 C34,32.206 32.206,34 30,34 C27.794,34 26,32.206 26,30 C26,29.448 25.553,29 25,29 C24.447,29 24,29.448 24,30 C24,33.309 26.691,36 30,36 C33.309,36 36,33.309 36,30 C36,26.691 33.309,24 30,24 C28.655,24 27.462,24.372 26.488,25.074 L22.256,20.842 C24.42,19.007 27.131,18 30,18 C36.617,18 42,23.383 42,30 C42,36.617 36.617,42 30,42 C23.383,42 18,36.617 18,30 C18,28.181 18.41,26.417 19.219,24.759 C19.461,24.262 19.255,23.664 18.759,23.421 C18.261,23.179 17.663,23.387 17.422,23.882 C16.479,25.816 16,27.874 16,30 C16,37.72 22.28,44 30,44 C37.72,44 44,37.72 44,30 C44,22.28 37.72,16 30,16 C26.597,16 23.387,17.218 20.842,19.428 L16.601,15.187 C20.285,11.848 24.997,10 30,10 C41.028,10 50,18.972 50,30 C50,41.028 41.028,50 30,50 C18.972,50 10,41.028 10,30 C10,26.085 11.141,22.286 13.298,19.013 C13.602,18.552 13.475,17.932 13.014,17.628 C12.551,17.324 11.932,17.453 11.628,17.913 C9.255,21.513 8,25.693 8,30 C8,42.131 17.869,52 30,52 C42.131,52 52,42.131 52,30 C52,17.869 42.131,8 30,8 C24.463,8 19.251,10.057 15.187,13.773 L12,10.586 L12,8.57 C17.04,4.333 23.411,2 30,2 C45.439,2 58,14.561 58,30 C58,45.439 45.439,58 30,58 C14.561,58 2,45.439 2,30 C2,24.707 3.488,19.551 6.305,15.09 C6.6,14.624 6.46,14.006 5.993,13.711 C5.525,13.417 4.909,13.557 4.613,14.023 C1.596,18.803 -1.21569421e-14,24.328 -1.21569421e-14,30 C-1.21569421e-14,46.542 13.458,60 30,60 C46.542,60 60,46.542 60,30 C60,13.458 46.542,0 30,0 L30,0 Z" id="target"/></g></g></svg>